<?xml version="1.0" encoding="UTF-8" standalone="no"?>
<!-- Created with Inkscape (http://www.inkscape.org/) -->

<svg
   xmlns:dc="http://purl.org/dc/elements/1.1/"
   xmlns:cc="http://creativecommons.org/ns#"
   xmlns:rdf="http://www.w3.org/1999/02/22-rdf-syntax-ns#"
   xmlns:svg="http://www.w3.org/2000/svg"
   xmlns="http://www.w3.org/2000/svg"
   xmlns:sodipodi="http://sodipodi.sourceforge.net/DTD/sodipodi-0.dtd"
   xmlns:inkscape="http://www.inkscape.org/namespaces/inkscape"
   width="54"
   height="54"
   viewBox="0 0 54.000002 53.999999"
   id="svg2"
   version="1.1"
   inkscape:version="0.91 r13725"
   sodipodi:docname="logo.svg">
  <defs
     id="defs4" />
  <sodipodi:namedview
     id="base"
     pagecolor="#e8f5e9"
     bordercolor="#666666"
     borderopacity="1.0"
     inkscape:pageopacity="0"
     inkscape:pageshadow="2"
     inkscape:zoom="10.677991"
     inkscape:cx="27.501308"
     inkscape:cy="13.77849"
     inkscape:document-units="px"
     inkscape:current-layer="layer1"
     showgrid="false"
     inkscape:window-width="1536"
     inkscape:window-height="801"
     inkscape:window-x="-8"
     inkscape:window-y="-8"
     inkscape:window-maximized="1"
     fit-margin-top="0"
     fit-margin-left="0"
     fit-margin-right="0"
     fit-margin-bottom="0"
     units="px" />
  <metadata
     id="metadata7">
    <rdf:RDF>
      <cc:Work
         rdf:about="">
        <dc:format>image/svg+xml</dc:format>
        <dc:type
           rdf:resource="http://purl.org/dc/dcmitype/StillImage" />
        <dc:title />
      </cc:Work>
    </rdf:RDF>
  </metadata>
  <g
     inkscape:label="Vrstva 1"
     inkscape:groupmode="layer"
     id="layer1"
     transform="translate(-151.79356,-592.73905)">
    <rect
       ry="3.1496866"
       rx="3.8068278"
       y="592.73907"
       x="151.79356"
       height="54.000004"
       width="54.000004"
       id="rect4282"
       style="fill:#7fb6b4;fill-opacity:1;fill-rule:nonzero;stroke:none;stroke-width:1;stroke-linecap:butt;stroke-linejoin:miter;stroke-miterlimit:4;stroke-dasharray:none;stroke-opacity:1" />
    <g
       id="g3369"
       transform="matrix(0.20201141,0,0,0.20201141,181.20825,596.02017)"
       style="fill:#ffffff;fill-opacity:1;stroke:none;stroke-width:1;stroke-linecap:butt;stroke-linejoin:miter;stroke-miterlimit:4;stroke-dasharray:none;stroke-opacity:1">
      <g
         id="g4257"
         transform="matrix(0.43393892,0,0,0.43393892,-109.77,1.8644998)"
         style="fill:#ffffff;fill-opacity:1;stroke:none;stroke-width:2.30447173;stroke-linecap:butt;stroke-linejoin:miter;stroke-miterlimit:4;stroke-dasharray:none;stroke-opacity:1">
        <g
           display="none"
           id="Robot"
           style="display:none;fill:#ffffff;fill-opacity:1;stroke:none;stroke-width:2.30447173;stroke-linecap:butt;stroke-linejoin:miter;stroke-miterlimit:4;stroke-dasharray:none;stroke-opacity:1">
          <path
             id="path4235"
             d="m 11.807,208.304 c 0,-17.198 13.95,-31.149 31.151,-31.149 17.204,0 31.153,13.951 31.153,31.149 l 0,130.466 c 0,17.209 -13.95,31.146 -31.153,31.146 -17.202,0 -31.151,-13.937 -31.151,-31.146 l 0,-130.466 z m 427.219,0 c 0,-17.201 -13.943,-31.149 -31.149,-31.149 -17.201,0 -31.151,13.948 -31.151,31.149 l 0,130.466 c 0,17.209 13.95,31.146 31.151,31.146 17.206,0 31.149,-13.937 31.149,-31.146 l 0,-130.466 z M 204.389,418.448 m 0,0 m 0,0 42.056,0 0,69.011 c 0,17.211 13.946,31.153 31.151,31.153 17.196,0 31.151,-13.942 31.151,-31.153 l 0,-69.011 23.854,0 c 17.207,0 32.102,-14.879 32.102,-33.252 l 0,-202.156 -278.516,0 0,202.156 c 0,18.373 14.883,33.252 34.409,33.252 0,0 21.497,0 21.496,0 l 0,69.011 c 0,17.211 13.948,31.153 31.149,31.153 17.204,0 31.149,-13.942 31.149,-31.153 l 0,-69.011 M 365.698,172.221 c 0,-48.111 -28.854,-90.167 -71.576,-112.23 -0.001,0 21.721,-39.631 21.721,-39.631 1.149,-2.097 0.381,-4.727 -1.714,-5.878 -2.096,-1.15 -4.728,-0.382 -5.879,1.715 l -21.95,40.048 0.003,0 c -18.425,-8.159 -39.089,-12.731 -60.92,-12.731 -21.83,0 -42.495,4.572 -60.92,12.731 l 0.005,0 -21.951,-40.048 c -1.151,-2.098 -3.784,-2.866 -5.878,-1.715 -2.096,1.151 -2.863,3.781 -1.715,5.878 0,0 21.722,39.632 21.721,39.631 -42.722,22.063 -71.576,64.119 -71.576,112.23 l 280.641,0"
             display="inline"
             inkscape:connector-curvature="0"
             style="display:inline;fill:#ffffff;fill-opacity:1;stroke:none;stroke-width:2.30447173;stroke-linecap:butt;stroke-linejoin:miter;stroke-miterlimit:4;stroke-dasharray:none;stroke-opacity:1" />
        </g>
        <g
           display="none"
           id="Eyes"
           style="display:none;fill:#ffffff;fill-opacity:1;stroke:none;stroke-width:2.30447173;stroke-linecap:butt;stroke-linejoin:miter;stroke-miterlimit:4;stroke-dasharray:none;stroke-opacity:1">
          <path
             id="path4238"
             d="m 173.296,109.601 c 0,6.496 -5.27,11.755 -11.754,11.755 -6.493,0 -11.756,-5.259 -11.756,-11.755 0,-6.489 5.263,-11.754 11.756,-11.754 6.484,0 11.754,5.264 11.754,11.754 m 104.239,0 c 0,6.496 5.266,11.755 11.759,11.755 6.483,0 11.753,-5.259 11.753,-11.755 0,-6.489 -5.27,-11.754 -11.753,-11.754 -6.494,0 -11.759,5.264 -11.759,11.754"
             display="inline"
             inkscape:connector-curvature="0"
             style="display:inline;fill:#ffffff;fill-opacity:1;stroke:none;stroke-width:2.30447173;stroke-linecap:butt;stroke-linejoin:miter;stroke-miterlimit:4;stroke-dasharray:none;stroke-opacity:1" />
        </g>
        <g
           id="FINAL_ROBOT"
           style="fill:#ffffff;fill-opacity:1;stroke:none;stroke-width:2.30447173;stroke-linecap:butt;stroke-linejoin:miter;stroke-miterlimit:4;stroke-dasharray:none;stroke-opacity:1">
          <g
             id="g4241"
             style="fill:#ffffff;fill-opacity:1;stroke:none;stroke-width:2.30447173;stroke-linecap:butt;stroke-linejoin:miter;stroke-miterlimit:4;stroke-dasharray:none;stroke-opacity:1">
            <path
               id="path4243"
               d="m 42.958,177.155 c -17.202,0 -31.151,13.951 -31.151,31.149 l 0,130.466 c 0,17.209 13.95,31.146 31.151,31.146 17.204,0 31.153,-13.937 31.153,-31.146 l 0,-130.466 c 0,-17.198 -13.949,-31.149 -31.153,-31.149 z"
               inkscape:connector-curvature="0"
               style="fill:#ffffff;fill-opacity:1;stroke:none;stroke-width:2.30447173;stroke-linecap:butt;stroke-linejoin:miter;stroke-miterlimit:4;stroke-dasharray:none;stroke-opacity:1" />
            <path
               id="path4245"
               d="m 407.876,177.155 c -17.201,0 -31.151,13.948 -31.151,31.149 l 0,130.466 c 0,17.209 13.95,31.146 31.151,31.146 17.206,0 31.149,-13.937 31.149,-31.146 l 0,-130.466 c 0.001,-17.2 -13.942,-31.149 -31.149,-31.149 z"
               inkscape:connector-curvature="0"
               style="fill:#ffffff;fill-opacity:1;stroke:none;stroke-width:2.30447173;stroke-linecap:butt;stroke-linejoin:miter;stroke-miterlimit:4;stroke-dasharray:none;stroke-opacity:1" />
            <path
               id="path4247"
               d="m 86.187,385.196 c 0,18.373 14.883,33.252 34.409,33.252 0,0 21.497,0 21.496,0 l 0,69.011 c 0,17.211 13.948,31.153 31.149,31.153 17.204,0 31.149,-13.942 31.149,-31.153 l 0,-69.011 42.056,0 0,69.011 c 0,17.211 13.946,31.153 31.151,31.153 17.196,0 31.151,-13.942 31.151,-31.153 l 0,-69.011 23.854,0 c 17.207,0 32.102,-14.879 32.102,-33.252 l 0,-202.156 -278.517,0 0,202.156 z"
               inkscape:connector-curvature="0"
               style="fill:#ffffff;fill-opacity:1;stroke:none;stroke-width:2.30447173;stroke-linecap:butt;stroke-linejoin:miter;stroke-miterlimit:4;stroke-dasharray:none;stroke-opacity:1" />
            <path
               id="path4249"
               d="m 294.122,59.991 c -0.001,0 21.721,-39.631 21.721,-39.631 1.149,-2.097 0.381,-4.727 -1.714,-5.878 -2.096,-1.15 -4.728,-0.382 -5.879,1.715 L 286.3,56.244 c -18.425,-8.159 -39.088,-12.73 -60.918,-12.73 -21.828,0 -42.492,4.572 -60.917,12.729 l -21.95,-40.046 c -1.151,-2.098 -3.784,-2.866 -5.878,-1.715 -2.096,1.151 -2.863,3.781 -1.715,5.878 0,0 21.722,39.632 21.721,39.631 -42.722,22.063 -71.576,64.119 -71.576,112.23 l 280.63,0 C 365.698,124.11 336.843,82.054 294.122,59.991 Z m -132.607,61.364 c -6.493,0 -11.756,-5.259 -11.756,-11.755 0,-6.489 5.263,-11.754 11.756,-11.754 6.484,0 11.754,5.265 11.754,11.754 0,6.497 -5.27,11.755 -11.754,11.755 z m 127.751,0 c -6.493,0 -11.759,-5.259 -11.759,-11.755 0,-6.489 5.266,-11.754 11.759,-11.754 6.483,0 11.753,5.265 11.753,11.754 0,6.497 -5.269,11.755 -11.753,11.755 z"
               inkscape:connector-curvature="0"
               style="fill:#ffffff;fill-opacity:1;stroke:none;stroke-width:2.30447173;stroke-linecap:butt;stroke-linejoin:miter;stroke-miterlimit:4;stroke-dasharray:none;stroke-opacity:1" />
          </g>
        </g>
      </g>
    </g>
    <g
       transform="matrix(0.09928761,0,0,0.09928761,149.00725,592.12111)"
       id="SVG"
       style="fill:#7fb6b4;fill-opacity:1">
      <path
         inkscape:connector-curvature="0"
         id="S"
         d="m 219.402,301.214 c -5.38819,-5.38819 -8.72126,-12.8315 -8.72126,-21.0508 0,-16.4409 13.3323,-29.7732 29.772,-29.7732 16.4398,0 29.772,13.3323 29.772,29.7732 l -17.4402,0 c 0,-6.81024 -5.52283,-12.3331 -12.3319,-12.3331 -6.81024,0 -12.3319,5.52283 -12.3319,12.3331 0,3.40157 1.37717,6.48189 3.60591,8.71299 l 0.006,0 c 2.2311,2.23346 5.31378,3.61417 8.72008,3.61417 l 0,0.005 c 8.21929,0 15.6614,3.33425 21.0496,8.72244 l 0.001,-0.001 c 5.38819,5.38819 8.72126,12.8315 8.72126,21.052 0,16.4398 -13.3323,29.7732 -29.772,29.7732 -16.4398,0 -29.772,-13.3335 -29.772,-29.7732 l 17.4402,0 c 0,6.80906 5.52165,12.3319 12.3319,12.3319 6.80906,0 12.3319,-5.52283 12.3319,-12.3319 0,-3.40157 -1.37835,-6.48189 -3.60591,-8.71417 l -0.006,0 c -2.2321,-2.23274 -5.31478,-3.61463 -8.7199,-3.61463 l 0,-0.005 c -8.22047,0 -15.6626,-3.33307 -21.0508,-8.72126 l 0,0 z"
         style="fill:#7fb6b4;fill-opacity:1" />
      <polygon
         id="V"
         points="299.995,309.927 312.324,250.39 329.767,250.39 308.715,352.042 291.275,352.042 270.224,250.39 287.668,250.39 "
         style="fill:#7fb6b4;fill-opacity:1" />
      <path
         inkscape:connector-curvature="0"
         id="G"
         d="m 359.544,292.498 29.772,0 0,29.7685 0.004,0 c 0,16.4409 -13.3323,29.7756 -29.7732,29.7744 -16.4409,10e-4 -29.7732,-13.3323 -29.7744,-29.772 l 0,-0.002 0,-42.1016 -0.005,0 c 0,-16.4409 13.3335,-29.7744 29.7744,-29.7744 16.4409,0 29.7744,13.3335 29.7744,29.7744 l -17.4449,0 c 0,-6.80669 -5.52047,-12.3272 -12.3272,-12.3272 -6.80787,0 -12.3283,5.52047 -12.3283,12.3272 l 0,42.1039 0,0 c 10e-4,6.80669 5.52165,12.326 12.3283,12.326 6.80551,0 12.3248,-5.51811 12.3272,-12.3236 l 0,-0.005 0,-12.3236 -12.3272,0 0,-17.4449 z"
         style="fill:#7fb6b4;fill-opacity:1" />
    </g>
  </g>
</svg>
